<svg version="1.1" xmlns="http://www.w3.org/2000/svg" xmlns:xlink="http://www.w3.org/1999/xlink" width="85.15645" height="78.4397" viewBox="0,0,85.15645,78.4397"><g transform="translate(-201.19117,-137.52666)"><g data-paper-data="{&quot;isPaintingLayer&quot;:true}" fill-rule="nonzero" stroke="none" stroke-width="0.5" stroke-linecap="butt" stroke-linejoin="miter" stroke-miterlimit="10" stroke-dasharray="" stroke-dashoffset="0" style="mix-blend-mode: normal"><path d="" fill="#ff0000"/><path d="M228.19849,195.8967c-0.72211,1.13011 -1.09409,2.58256 -1.95463,3.57583c-0.12329,0.22523 -0.24733,0.45042 -0.37215,0.6756l-0.04813,0.0343l0.02022,0.01239l-1.58336,2.58412c-0.43479,0.73723 -1.2371,1.23185 -2.15494,1.23185c-0.65172,0 -1.24519,-0.24938 -1.69021,-0.65792c-0.81456,1.23645 -1.56433,2.55865 -2.84875,3.19524c-0.09973,0.04943 -0.20057,0.09505 -0.30244,0.13714l-1.66665,2.08763c-0.45766,0.58352 -1.16919,0.95844 -1.96828,0.95844c-1.34378,0 -2.43994,-1.06022 -2.49761,-2.38979c-0.453,-0.45249 -0.73323,-1.0779 -0.73323,-1.76876c0,-0.37716 0.08352,-0.73481 0.23307,-1.05547l0.84962,-1.93418c-1.08844,-0.27048 -1.89509,-1.2542 -1.89509,-2.42632c0,-0.45786 0.12309,-0.88698 0.33797,-1.25606l0.30957,-0.55578l-1.84752,0.43989c-0.20211,0.05272 -0.41417,0.08078 -0.6328,0.08078c-0.66787,0 -1.27457,-0.26189 -1.72301,-0.68858l-0.67578,0.5967c-0.44188,0.39402 -1.02457,0.63347 -1.66318,0.63347c-1.38071,0 -2.5,-1.11929 -2.5,-2.5c0,-0.69036 0.27982,-1.31536 0.73223,-1.76777l2.4162,-2.4162c2.30655,-3.71314 6.66993,-7.11461 10.19792,-10.21277c2.27005,-2.81711 4.61343,-5.58043 7.01332,-8.36205c2.47863,-2.87288 6.73496,-8.51138 10.24002,-10.17166c0.10471,-0.0496 0.21011,-0.09723 0.31617,-0.14302l-0.01683,-0.03366l4.28781,-2.1439c0.34741,-0.18291 0.74312,-0.28642 1.16302,-0.28642c0.42619,0 0.82747,0.10664 1.17861,0.2947c0.25339,-0.75153 0.60139,-1.4946 1.02247,-2.22305c0.39254,-7.50438 5.92143,-15.04232 11.82746,-19.03124c2.37369,-1.60318 4.18501,-3.06121 7.24911,-2.86587c1.35322,0.08627 2.58987,0.80443 3.88481,1.20665c0,0 2.37171,0.79057 1.58114,3.16228c-0.5191,1.55731 -1.71992,1.75121 -2.48338,1.70075c0.42877,0.44888 0.76898,0.96298 1.03141,1.52006l0.4391,-0.50183c0.45841,-0.52944 1.13546,-0.86438 1.89075,-0.86438c1.38071,0 2.5,1.11929 2.5,2.5c0,0.52369 -0.16102,1.00977 -0.43626,1.41144l-1.0294,1.55061c0.11444,0.1392 0.22835,0.28349 0.34174,0.43301c0.92104,1.21451 0.06133,3.0479 0.092,4.57185c-1.12405,2.6144 -2.3546,5.24921 -3.96414,7.59939c-1.64396,3.2002 -4.3145,5.8917 -7.4432,7.68425l-2.22915,3.96292c-2.03597,6.21096 -7.19366,12.63034 -11.18241,17.74157l-2.07598,3.63296c-0.42441,0.77572 -1.24811,1.30179 -2.19469,1.30179c-1.38071,0 -2.5,-1.11929 -2.5,-2.5c0,-0.01727 0.00018,-0.03449 0.00052,-0.05167c-0.1302,0.0409 -0.26499,0.07143 -0.4034,0.09064l-0.53586,0.67871c-0.4573,0.59009 -1.17291,0.96993 -1.97724,0.96993c-1.14287,0 -2.10662,-0.76688 -2.40474,-1.81412c-0.51021,0.7853 -1.01643,1.57465 -1.52182,2.36559z" fill="#fff700"/><path d="M232.24112,215.74714c-2.32119,0.92847 -3.24967,-1.39272 -3.24967,-1.39272l-0.72041,-2.28248c0,-5.59651 0,-11.19301 0,-16.78952c0,0 0,-2.5 2.5,-2.5c2.5,0 2.5,2.5 2.5,2.5c0,5.59651 0,11.19301 0,16.78952l0.36279,0.42554c0,0 0.92847,2.32119 -1.39272,3.24967z" fill="#ff8300"/><path d="M251.05662,212.63851c-1.92056,1.60046 -3.52101,-0.3201 -3.52101,-0.3201l-1.75462,-2.29677c-2.81859,-7.11506 -3.60175,-15.65737 -0.50493,-22.79533c0,0 1.01535,-2.28453 3.29988,-1.26917c2.28453,1.01535 1.26917,3.29988 1.26917,3.29988c-2.63366,5.74356 -1.73877,13.17993 0.57825,18.90767l0.95335,0.95282c0,0 1.60046,1.92056 -0.3201,3.52101z" fill="#ff8300"/><path d="M264.48943,150.50221c-0.06572,-0.15334 -0.11682,-0.30084 -0.15496,-0.44259c-0.74444,-0.13975 -1.70712,-0.61055 -1.91765,-2.08424c-0.35355,-2.47487 2.12132,-2.82843 2.12132,-2.82843c5.84014,-0.80435 10.31975,-4.05056 16.26666,-4.89868l0.28211,0.10037l0.00827,-0.09092l2.95339,0.26849c1.28675,0.10234 2.29905,1.17897 2.29905,2.49204c0,0.69036 -0.27982,1.31536 -0.73223,1.76777l-3.24959,3.24959l-0.02369,-0.02369c-0.05919,0.06924 -0.11909,0.13792 -0.17975,0.20603c-0.83254,0.93467 -2.11938,1.33295 -3.16023,2.02821c-0.91814,0.61329 -1.78678,1.22681 -2.64144,1.82796l-1.08503,1.39503c-0.45673,0.59896 -1.17782,0.98548 -1.9892,0.98548c-0.05402,0 -0.10764,-0.00171 -0.16081,-0.00509l-1.41986,1.2621c-0.44256,0.39706 -1.02753,0.63859 -1.66891,0.63859c-0.30728,0 -0.60162,-0.05544 -0.87355,-0.15686l-1.13145,0.13728l-2.36616,0.70985c-0.24372,0.07928 -0.50387,0.12213 -0.77403,0.12213c-1.38071,0 -2.5,-1.11929 -2.5,-2.5c0,-1.03175 0.62501,-1.91753 1.51707,-2.29936l1.50952,-0.68614c-0.35409,-0.23079 -0.68254,-0.60017 -0.92885,-1.17489z" fill="#ff8300"/><path d="M250.74737,146.26783c0,-1.38071 1.11929,-2.5 2.5,-2.5c1.38071,0 2.5,1.11929 2.5,2.5c0,1.38071 -1.11929,2.5 -2.5,2.5c-1.38071,0 -2.5,-1.11929 -2.5,-2.5z" fill="#000000"/></g></g></svg>